<?xml version="1.0" encoding="utf-8"?>
<!-- Generator: Adobe Illustrator 25.2.1, SVG Export Plug-In . SVG Version: 6.00 Build 0)  -->
<svg version="1.1" id="Capa_1" xmlns="http://www.w3.org/2000/svg" xmlns:xlink="http://www.w3.org/1999/xlink" x="0px" y="0px"
	 viewBox="0 0 577.5 167.8" style="enable-background:new 0 0 577.5 167.8;" xml:space="preserve">
<style type="text/css">
	.st0{enable-background:new    ;}
	.st1{fill:#595959;}
	.st2{fill:#FFAA00;}
</style>
<g id="Capa_2_1_">
	<g id="Capa_1-2">
		<g class="st0">
			<path class="st1" d="M213.2,151.3h-7.7c0,1.5,0.4,2.6,1.1,3.3c0.7,0.6,1.7,1,2.8,1c0.6,0,1,0,1.2-0.1s0.4-0.1,0.6-0.2
				c0.2-0.1,0.3-0.1,0.4-0.1c0.4-0.1,0.7-0.2,1-0.3l0.3,1.4c-1.6,0.6-2.9,0.8-3.8,0.8c-1.7,0-3-0.5-4-1.5c-1-1-1.5-2.5-1.5-4.5
				c0-2,0.5-3.6,1.4-4.7c0.9-1.1,2.1-1.7,3.6-1.7c1.4,0,2.6,0.5,3.4,1.4s1.2,2.2,1.2,3.8C213.2,150.2,213.2,150.7,213.2,151.3z
				 M205.6,149.9h5.9c0-1.2-0.2-2.1-0.6-2.8s-1.1-1-2.2-1c-1,0-1.8,0.3-2.3,1C205.9,147.9,205.6,148.8,205.6,149.9z"/>
			<path class="st1" d="M219.6,144.8l2.5,4.3l2.5-4.3h2l-3.6,5.9l3.7,6.2h-2l-2.7-4.8l-2.7,4.8h-2l3.7-6.2l-3.6-5.9H219.6z"/>
			<path class="st1" d="M233.8,162.7H232v-17.8h1.1l0.6,1.4c0.7-0.5,1.3-0.9,1.9-1.2c0.6-0.3,1.2-0.4,1.9-0.4c2.9,0,4.4,2.1,4.4,6.3
				c0,2.4-0.5,4-1.5,5c-0.9,0.9-2,1.3-3.1,1.3c-1.2,0-2.3-0.4-3.4-1.2V162.7z M233.8,147.8v6.5c0.3,0.4,0.8,0.7,1.3,0.9
				s1.1,0.3,1.6,0.3c1.3,0,2.1-0.4,2.6-1.1s0.7-1.9,0.7-3.5s-0.2-2.8-0.7-3.6s-1.1-1.2-1.9-1.2c-0.5,0-1,0.1-1.5,0.3
				c-0.5,0.2-0.9,0.4-1.1,0.6C234.5,147.3,234.2,147.5,233.8,147.8z"/>
			<path class="st1" d="M247.6,156.9V140h1.8v16.9H247.6z"/>
			<path class="st1" d="M264.1,155.4c-0.9,1.1-2.2,1.6-3.9,1.6c-1.7,0-3-0.5-3.9-1.6c-0.9-1.1-1.3-2.6-1.3-4.6s0.4-3.5,1.3-4.6
				c0.9-1.1,2.1-1.7,3.8-1.7c1.7,0,3,0.6,3.9,1.7s1.4,2.7,1.4,4.6S265,154.3,264.1,155.4z M263.7,151c0-1.6-0.3-2.7-0.9-3.6
				c-0.6-0.8-1.5-1.2-2.7-1.2c-1.2,0-2,0.4-2.5,1.2c-0.5,0.8-0.7,2-0.7,3.6c0,3,1.1,4.6,3.4,4.6c1.2,0,2.1-0.4,2.6-1.1
				C263.4,153.7,263.7,152.5,263.7,151z"/>
			<path class="st1" d="M273,147.7v9.2h-1.8v-12.1h1.2l0.3,1.4c0.8-0.6,1.4-1,1.9-1.3c0.5-0.2,1.1-0.4,1.8-0.4c0.3,0,0.6,0,0.7,0
				l0.3,0.1l-0.3,1.7c-0.3-0.1-0.7-0.1-1.2-0.1C274.9,146.3,274,146.7,273,147.7z"/>
			<path class="st1" d="M290.9,151.3h-7.7c0,1.5,0.4,2.6,1.1,3.3c0.7,0.6,1.7,1,2.8,1c0.6,0,1,0,1.2-0.1s0.4-0.1,0.6-0.2
				c0.2-0.1,0.3-0.1,0.4-0.1c0.4-0.1,0.7-0.2,1-0.3l0.3,1.4c-1.6,0.6-2.9,0.8-3.8,0.8c-1.7,0-3-0.5-4-1.5c-1-1-1.5-2.5-1.5-4.5
				c0-2,0.5-3.6,1.4-4.7c0.9-1.1,2.1-1.7,3.6-1.7c1.4,0,2.6,0.5,3.4,1.4s1.2,2.2,1.2,3.8C291,150.2,291,150.7,290.9,151.3z
				 M283.3,149.9h5.9c0-1.2-0.2-2.1-0.6-2.8s-1.1-1-2.2-1c-1,0-1.8,0.3-2.3,1C283.7,147.9,283.4,148.8,283.3,149.9z"/>
			<path class="st1" d="M310.5,149.7h1c0-1.5-0.2-2.4-0.6-2.9c-0.4-0.4-1.2-0.7-2.5-0.7c-1.3,0-2.4,0.2-3.2,0.5l-0.3-1.4
				c1.4-0.5,2.8-0.7,4.2-0.7c2.8,0,4.3,1.4,4.3,4.3v8.1h-1.1l-0.6-1.4c-0.7,0.6-1.4,1-1.9,1.2c-0.5,0.2-1.2,0.3-1.9,0.3
				c-1.1,0-2-0.3-2.6-1c-0.6-0.7-0.9-1.6-0.9-2.6C304.2,150.9,306.3,149.7,310.5,149.7z M311.5,151.2h-1.1c-1.6,0-2.8,0.2-3.4,0.5
				s-0.9,0.8-0.9,1.5s0.2,1.2,0.5,1.7c0.4,0.4,0.8,0.7,1.4,0.7c0.6,0,1.1-0.1,1.6-0.4c0.5-0.3,1.1-0.7,1.8-1.4V151.2z"/>
			<path class="st1" d="M335.5,140h1.8v16.9h-1.1l-0.6-1.4c-1.5,1-2.8,1.6-3.9,1.6c-2.9,0-4.4-2.1-4.4-6.3c0-2.4,0.5-4,1.5-5
				c0.9-0.9,2-1.3,3.1-1.3s2.3,0.4,3.4,1.2V140z M335.5,153.9v-6.3c-0.3-0.4-0.8-0.7-1.3-1c-0.6-0.3-1.1-0.4-1.5-0.4
				c-1.3,0-2.1,0.4-2.6,1.1c-0.5,0.7-0.7,1.9-0.7,3.5s0.2,2.8,0.7,3.6c0.5,0.8,1.1,1.2,1.9,1.2C333,155.5,334.2,155,335.5,153.9z"/>
			<path class="st1" d="M345.6,140v2.2h-1.8V140H345.6z M343.8,156.9v-12.1h1.8v12.1H343.8z"/>
			<path class="st1" d="M358.9,155.6c-1.4,1-2.6,1.5-3.7,1.5c-2.9,0-4.4-2.1-4.4-6.3c0-2.4,0.5-4,1.5-5c0.9-0.8,2-1.3,3.3-1.3
				s2.4,0.6,3.3,1.8l0.6-1.6h1.1v12.7c0,1.8-0.4,3.1-1.3,3.9c-0.9,0.9-2,1.3-3.5,1.3c-0.8,0-1.4-0.1-2-0.3c-0.6-0.2-1.2-0.4-1.9-0.7
				l0.3-1.3c1.4,0.4,2.5,0.7,3.4,0.7s1.7-0.3,2.3-0.8c0.6-0.6,0.9-1.4,0.9-2.6V155.6z M358.9,153.9v-4.5c0-1-0.3-1.7-0.9-2.3
				c-0.6-0.6-1.3-0.9-1.9-0.9c-1.3,0-2.1,0.4-2.6,1.1c-0.5,0.7-0.7,1.9-0.7,3.5c0,3.2,0.9,4.7,2.7,4.7
				C356.5,155.5,357.7,155,358.9,153.9z"/>
			<path class="st1" d="M369,140v2.2h-1.8V140H369z M367.2,156.9v-12.1h1.8v12.1H367.2z"/>
			<path class="st1" d="M375.8,154.3v-8h-1.6v-1.5h1.7v-3.5h1.8v3.5h2.9v1.5h-3v7.7c0,1.1,0.5,1.6,1.6,1.6c0.3,0,0.7,0,1.2-0.1
				l0.3,1.3c-0.7,0.2-1.3,0.3-2,0.3c-0.7,0-1.4-0.2-2-0.6C376.1,156,375.8,155.3,375.8,154.3z"/>
			<path class="st1" d="M391.5,149.7h1c0-1.5-0.2-2.4-0.6-2.9c-0.4-0.4-1.2-0.7-2.5-0.7c-1.3,0-2.4,0.2-3.2,0.5l-0.3-1.4
				c1.4-0.5,2.8-0.7,4.2-0.7c2.8,0,4.3,1.4,4.3,4.3v8.1h-1.1l-0.6-1.4c-0.7,0.6-1.4,1-1.9,1.2c-0.5,0.2-1.2,0.3-1.9,0.3
				c-1.1,0-2-0.3-2.6-1c-0.6-0.7-0.9-1.6-0.9-2.6C385.3,150.9,387.3,149.7,391.5,149.7z M392.5,151.2h-1.1c-1.6,0-2.8,0.2-3.4,0.5
				s-0.9,0.8-0.9,1.5s0.2,1.2,0.5,1.7c0.4,0.4,0.8,0.7,1.4,0.7c0.6,0,1.1-0.1,1.6-0.4c0.5-0.3,1.1-0.7,1.8-1.4V151.2z"/>
			<path class="st1" d="M401.1,156.9V140h1.8v16.9H401.1z"/>
			<path class="st1" d="M426.6,151.3h-7.7c0,1.5,0.4,2.6,1.1,3.3c0.7,0.6,1.7,1,2.8,1c0.6,0,1,0,1.2-0.1s0.4-0.1,0.6-0.2
				s0.3-0.1,0.4-0.1c0.4-0.1,0.8-0.2,1-0.3l0.3,1.4c-1.6,0.6-2.9,0.8-3.8,0.8c-1.7,0-3-0.5-4-1.5c-1-1-1.5-2.5-1.5-4.5
				c0-2,0.5-3.6,1.4-4.7s2.1-1.7,3.6-1.7s2.6,0.5,3.4,1.4s1.2,2.2,1.2,3.8C426.7,150.2,426.7,150.7,426.6,151.3z M419,149.9h5.9
				c0-1.2-0.2-2.1-0.6-2.8s-1.1-1-2.2-1s-1.8,0.3-2.3,1C419.3,147.9,419.1,148.8,419,149.9z"/>
			<path class="st1" d="M434.3,147.3v9.6h-1.8v-12.1h1.2l0.3,1.2c0.4-0.3,0.7-0.5,0.9-0.7s0.6-0.3,1.1-0.5c0.5-0.2,1.1-0.3,1.6-0.3
				c1.1,0,2,0.3,2.8,1c0.7,0.7,1.1,1.7,1.1,2.9v8.4h-1.8v-7.9c0-1.9-0.8-2.9-2.4-2.9C436,146.1,435.1,146.5,434.3,147.3z"/>
			<path class="st1" d="M456.6,144.8l-4.1,12.1h-2.1l-4.1-12.1h2.1l3.1,10.2l3.1-10.2H456.6z"/>
			<path class="st1" d="M462.9,140v2.2h-1.8V140H462.9z M461.1,156.9v-12.1h1.8v12.1H461.1z"/>
			<path class="st1" d="M471.2,147.7v9.2h-1.8v-12.1h1.2l0.3,1.4c0.8-0.6,1.4-1,1.9-1.3s1.1-0.4,1.8-0.4c0.3,0,0.6,0,0.7,0l0.3,0.1
				l-0.3,1.7c-0.3-0.1-0.7-0.1-1.2-0.1C473.1,146.3,472.2,146.7,471.2,147.7z"/>
			<path class="st1" d="M488.7,155.4c-0.9,1.1-2.2,1.6-3.9,1.6c-1.7,0-3-0.5-3.9-1.6s-1.3-2.6-1.3-4.6s0.4-3.5,1.3-4.6
				c0.9-1.1,2.1-1.7,3.8-1.7s3,0.6,3.9,1.7c1,1.1,1.4,2.7,1.4,4.6S489.6,154.3,488.7,155.4z M488.2,151c0-1.6-0.3-2.7-0.9-3.6
				c-0.6-0.8-1.5-1.2-2.7-1.2c-1.2,0-2,0.4-2.5,1.2c-0.5,0.8-0.7,2-0.7,3.6c0,3,1.1,4.6,3.4,4.6c1.2,0,2-0.4,2.6-1.1
				S488.2,152.5,488.2,151z"/>
			<path class="st1" d="M497.5,147.3v9.6h-1.8v-12.1h1.2l0.3,1.2c0.4-0.3,0.7-0.5,0.9-0.7s0.6-0.3,1.1-0.5c0.5-0.2,1.1-0.3,1.6-0.3
				c1.1,0,2,0.3,2.8,1c0.7,0.7,1.1,1.7,1.1,2.9v8.4h-1.8v-7.9c0-1.9-0.8-2.9-2.4-2.9C499.3,146.1,498.3,146.5,497.5,147.3z"/>
			<path class="st1" d="M516.6,144.6c1.5,0,2.7,0.5,3.3,1.6c1.4-1.1,2.6-1.6,3.8-1.6s2.1,0.3,2.8,1s1.1,1.6,1.1,2.8v8.5h-1.8v-7.8
				c0-1-0.2-1.7-0.7-2.2s-1-0.8-1.8-0.8c-1,0-2,0.4-3.1,1.2c0.1,0.4,0.1,0.7,0.1,1v8.5h-1.8v-7.8c0-1-0.2-1.7-0.7-2.2
				s-1-0.8-1.8-0.8c-0.5,0-0.9,0.1-1.3,0.2c-0.4,0.1-0.7,0.3-0.9,0.4c-0.2,0.1-0.4,0.3-0.7,0.6v9.6h-1.8v-12.1h1.2l0.3,1.2
				c0.4-0.3,0.7-0.6,0.9-0.7c0.2-0.2,0.6-0.3,1.1-0.5C515.5,144.7,516,144.6,516.6,144.6z"/>
			<path class="st1" d="M542.9,151.3h-7.7c0,1.5,0.4,2.6,1.1,3.3c0.7,0.6,1.7,1,2.8,1c0.6,0,1,0,1.2-0.1s0.4-0.1,0.6-0.2
				s0.3-0.1,0.4-0.1c0.4-0.1,0.8-0.2,1-0.3l0.3,1.4c-1.6,0.6-2.9,0.8-3.8,0.8c-1.7,0-3-0.5-4-1.5c-1-1-1.5-2.5-1.5-4.5
				c0-2,0.5-3.6,1.4-4.7s2.1-1.7,3.6-1.7s2.6,0.5,3.4,1.4s1.2,2.2,1.2,3.8C542.9,150.2,542.9,150.7,542.9,151.3z M535.3,149.9h5.9
				c0-1.2-0.2-2.1-0.6-2.8s-1.1-1-2.2-1s-1.8,0.3-2.3,1C535.6,147.9,535.3,148.8,535.3,149.9z"/>
			<path class="st1" d="M550.5,147.3v9.6h-1.8v-12.1h1.2l0.3,1.2c0.4-0.3,0.7-0.5,0.9-0.7c0.2-0.2,0.6-0.3,1.1-0.5
				c0.5-0.2,1.1-0.3,1.6-0.3c1.1,0,2,0.3,2.8,1c0.7,0.7,1.1,1.7,1.1,2.9v8.4h-1.8v-7.9c0-1.9-0.8-2.9-2.4-2.9
				C552.3,146.1,551.3,146.5,550.5,147.3z"/>
			<path class="st1" d="M564.8,154.3v-8h-1.6v-1.5h1.7v-3.5h1.8v3.5h2.9v1.5h-3v7.7c0,1.1,0.5,1.6,1.6,1.6c0.3,0,0.7,0,1.2-0.1
				l0.3,1.3c-0.7,0.2-1.3,0.3-2,0.3c-0.7,0-1.4-0.2-2-0.6C565.1,156,564.8,155.3,564.8,154.3z"/>
		</g>
		<g class="st0">
			<path class="st1" d="M253.2,113.2v13.2h-48.7V58.1h14.7v55.1H253.2z"/>
		</g>
		<g class="st0">
			<path class="st1" d="M257,100.7c0-14.6,12.8-26.8,28.1-26.8c15.2,0,27.9,12.2,27.9,26.8c0,14.6-12.7,26.9-27.9,26.9
				C269.9,127.6,257,115.3,257,100.7z M299.3,100.7c0-8-6.5-14.6-14.1-14.6c-7.8,0-14.2,6.7-14.2,14.6c0,8,6.5,14.7,14.2,14.7
				C292.8,115.4,299.3,108.6,299.3,100.7z"/>
		</g>
		<g class="st0">
			<path class="st1" d="M366.4,95.7v30.7h-14v-5.2c-3.7,4.2-9.5,6.4-15.1,6.4c-10.9,0-19.4-6.6-19.4-16.4c0-10.1,9.4-17.1,21.4-17.1
				c4.2,0,8.7,0.9,13.1,2.6v-1c0-5.5-3.4-10.2-11.8-10.2c-4.8,0-9.2,1.6-13.3,3.7l-4.9-9.6c7.3-3.7,14.3-5.7,21.5-5.7
				C357.3,73.8,366.4,82.3,366.4,95.7z M352.4,110.2v-4.8c-3.3-1.2-7.1-1.9-11-1.9c-5.3,0-9.4,3.1-9.4,7.3c0,4.2,3.7,6.8,8.6,6.8
				C346.1,117.6,351.4,115,352.4,110.2z"/>
		</g>
		<g class="st0">
			<path class="st1" d="M406.9,123.1c-3,2.7-7.7,4.5-11.8,4.5c-9,0-15.4-6.5-15.4-15.7V86.7h-7.1V75h7.1V60.9h13.9V75h11.1v11.7
				h-11.1v22.9c0,3.4,2.2,5.8,4.9,5.8c2,0,4-0.7,5-1.7L406.9,123.1z"/>
		</g>
		<g class="st0">
			<path class="st1" d="M449.2,110.2l9.2,9.4c-4.6,4.8-13.4,8-21,8c-15.3,0-27.2-11.2-27.2-27c0-15.5,11.4-26.7,26.4-26.7
				c16.1,0,25.5,12.2,25.5,31.6h-37.1c1.7,5.6,6.2,9.3,12.2,9.3C441.5,114.8,446.4,112.9,449.2,110.2z M425.3,95h23
				c-1.4-5.1-5.2-8.4-11-8.4C431.8,86.6,427.2,89.8,425.3,95z"/>
		</g>
		<g class="st0">
			<path class="st1" d="M467.5,100.7c0-14.6,12.9-26.8,28.1-26.8c8.4,0,15.2,3.4,20.2,8.7l-9.6,8.3c-2.6-2.9-6.7-4.8-10.6-4.8
				c-7.6,0-13.9,6.7-13.9,14.5c0,8.1,6.4,14.8,14,14.8c4,0,8.2-2,10.8-5l9.6,8.2c-5.1,5.6-12,9-20.6,9
				C480.3,127.6,467.5,115.3,467.5,100.7z"/>
		</g>
		<g class="st0">
			<path class="st1" d="M571.7,93.7v32.7h-14V96.8c0-6.4-4-10.7-9.7-10.7c-6.1,0-10.7,4.4-10.7,9.9v30.4h-14.5V56.9h14.5v24.4
				c3.2-4.5,8.8-7.5,15.4-7.5C563.7,73.8,571.7,82.1,571.7,93.7z"/>
		</g>
		<path class="st2" d="M28,113.5h-0.1c-1.7,0-3,1.3-3.1,3c-0.1,1.7,1.3,3.1,3,3.2c0,0,0,0,0,0c1.7,0.1,3.1-1.3,3.2-3c0,0,0,0,0,0
			C31,114.9,29.7,113.5,28,113.5z"/>
		<path class="st2" d="M61.5,88.2L61.5,88.2c-1.7,0-3.1,1.4-3.1,3c0,0,0,0,0,0c0,0.8,0.3,1.6,0.9,2.2c0.6,0.6,1.4,0.9,2.2,0.9l0,0
			c1.7,0,3.1-1.4,3.1-3.1C64.6,89.6,63.2,88.2,61.5,88.2L61.5,88.2z"/>
		<path class="st2" d="M53.1,125.7c0.8,0,1.6-0.3,2.2-0.8c1.2-1.2,1.3-3.1,0.1-4.4c-0.6-0.6-1.3-0.9-2.1-1h-0.1c-1.7,0-3,1.3-3.1,3
			c0,0.8,0.3,1.6,0.8,2.2C51.6,125.4,52.3,125.7,53.1,125.7z"/>
		<path class="st2" d="M164.4,83.2c0.6,0.2,1.7-1.2,2.1-1.6c1.2-1.2,2.4-2.6,3.6-3.9c5.5-6.3,9.8-13.4,11.6-21.7
			c1-4.8,1.4-9.7,1.2-14.6c-0.2-3.8-0.7-7.6-1.4-11.4c-2.6-13.9-2.5-15.3,1.8-19.9c0.3-0.3-5.4-10.4-5.8-10.2
			c-2.7,1.5-11.4,7.5-8.9,21.9c2.6,14.9,6.3,40-24.5,25.3c-5.2-2.5-16.5-9-16.5-9l-14.8,1.7l-24.3-3.7c0,0-18.2-1.4-18.3,2.8
			c-0.2,5.7,15.7,65.7,21,65.3c6.2-0.4,17.5-4.4,21.3-6.1c-1.8,2.7-13.9,10-24,10.1c-5,0-16.8-39.5-18.7-45c-0.2-0.5-0.3-1-0.7-1.2
			c-0.5-0.2-1.1-0.1-1.6,0.2C64,63.9,47,70.7,37.5,74.4l14.5,42.2c3.3-0.7,6.6,1.5,7.2,4.8c0.7,3.3-1.5,6.6-4.8,7.2
			c-0.4,0.1-0.8,0.1-1.2,0.1H53c-3.4-0.1-6-2.9-5.9-6.3c0-1.7,0.8-3.4,2.2-4.5L32.6,76.5c-1,0.7-1.8,1.6-2.3,2.8
			C26.1,89.8,9,133,5.9,140.7c-1.2,3.1-3.1,3.8-5.6,4.3c-0.2,0.1-0.4,0.3-0.4,0.5c0,0.2,0.2,0.3,0.4,0.4c2.6,0.3,5.4,0.9,8.2-0.3
			c1.9-0.8,2.8-3.2,3.5-5c1.1-2.9,3.4-8.5,3.4-8.5l0.7,35.7h13.4l9.1-16.2L29,122.6c-0.4,0.1-0.8,0.1-1.1,0.1h-0.2
			c-3.4-0.1-6-2.9-5.9-6.3c0.1-3.4,2.9-6.1,6.3-6c3.4,0.1,6,3,5.9,6.3c-0.1,1.6-0.7,3.2-1.9,4.3c-0.1,0.1-0.2,0.1-0.2,0.2l10.5,25.3
			c0.6-0.4,1.4-0.6,2.1-0.6l35.9-1.8L62.8,97.3c-0.4,0.1-0.9,0.2-1.3,0.2l0,0c-3.4,0-6.1-2.8-6.1-6.1c0-3.4,2.7-6.1,6.1-6.1l0,0
			c3.4,0,6.1,2.8,6.1,6.2c0,1.6-0.7,3.2-1.8,4.3l-0.2,0.2l20.7,47.9l9.5-0.5c2.1-0.1,4.1,1.1,5,3.1l9.8,21.4h19c0,0,1.8-59.5,4.2-63
			c2.6-3.9,16.5-12.1,23.8-16.4c9.3,4.5,17.8,6.9,21,6.7c-7.1-3.7-24.9-14.8-35-24.1C148.5,75,161.4,82.2,164.4,83.2z"/>
		<path class="st2" d="M172.4,78.2l-2.9,3.1c6.7,2.7,12.5,4.1,14.9,3.8C181.8,83.8,177.2,81.1,172.4,78.2z"/>
	</g>
</g>
</svg>
